<svg width="30" height="30" viewBox="0 0 30 30" fill="var(--main)" xmlns="http://www.w3.org/2000/svg">
<path d="M15 0C6.75 0 0 6.75 0 15C0 23.25 6.75 30 15 30C23.25 30 30 23.25 30 15C30 6.75 23.25 0 15 0ZM24.75 9.9375C25.5 9.9375 26.0625 10.5 26.8125 10.5C26.25 11.25 23.8125 11.25 23.0625 10.3125C23.625 10.125 24 9.9375 24.75 9.9375ZM1.875 15C1.875 14.25 1.875 13.5 2.0625 12.5625C2.25 12.5625 2.4375 12.75 2.625 12.75C2.625 12.75 2.8125 12.9375 2.8125 13.125C2.8125 13.6875 3.375 14.0625 3.75 14.0625C5.25 14.25 5.8125 15.5625 7.125 15.9375C7.5 16.125 7.3125 16.5 7.125 16.875C6 18.375 6.9375 19.5 7.875 20.4375C8.8125 21.1875 8.8125 21.9375 9 23.0625C9 24.375 9.1875 25.875 9.75 27.1875C5.0625 24.9375 1.875 20.4375 1.875 15ZM15 28.125C13.6875 28.125 12.1875 27.9375 11.0625 27.5625C10.875 27.1875 10.875 26.8125 11.0625 26.4375C11.8125 24.9375 12.5625 23.625 13.5 22.3125C13.875 21.9375 14.25 21.5625 14.25 21C14.25 20.625 14.4375 20.0625 14.625 19.6875C15.1875 18.75 15 18.1875 14.25 18C12.75 17.625 12 16.3125 10.875 15.75C9.75 15.1875 8.625 14.8125 7.6875 15.375C7.3125 15.5625 6.75 15.75 6.75 15.1875C6.75 14.4375 5.8125 13.875 6 13.125C5.8125 13.125 5.625 13.125 5.4375 13.3125C5.25 13.5 5.0625 13.6875 4.6875 13.5C4.3125 13.125 4.5 12.75 4.5 12.375C4.6875 12 4.875 11.8125 5.25 11.625C6 11.4375 6.75 11.4375 7.125 12.375C7.6875 10.6875 8.8125 9.75 9.9375 9C9.9375 9 11.4375 7.6875 11.625 7.6875C11.8125 7.6875 12 8.0625 12.375 8.25C12.75 8.25 12.9375 8.25 12.9375 7.875C13.125 6.9375 12.5625 5.8125 11.8125 5.625C11.8125 5.4375 12 5.4375 12 5.4375C12.5625 5.25 13.3125 4.875 13.125 4.3125C13.125 3.5625 12.375 3.1875 11.625 3.1875C11.25 3.1875 10.875 3.1875 10.5 3.375C9.75 3.75 8.8125 4.125 7.6875 4.125C9.75 2.625 12.375 1.875 15 1.875C15.5625 1.875 15.9375 1.875 16.5 1.875C15.375 2.0625 14.25 2.4375 13.5 2.8125C14.625 3 14.8125 3.5625 14.4375 4.5C14.25 4.875 14.4375 5.25 14.8125 5.4375C15.1875 5.625 15.5625 5.625 15.75 5.25C16.125 4.6875 16.875 4.5 17.4375 4.3125C18.1875 4.125 18.75 3.75 19.3125 3C19.3125 2.8125 19.5 2.8125 19.6875 2.625C20.8125 3 21.9375 3.75 23.0625 4.5C22.875 4.5 22.875 4.6875 22.6875 4.6875C22.3125 5.0625 21.75 5.25 22.3125 6C22.5 6.375 22.3125 6.5625 22.125 6.75C21.75 6.9375 21.5625 6.75 21.375 6.5625C21.1875 6.375 21.1875 6 20.625 6C20.4375 6.375 19.875 6.5625 19.875 7.125C20.8125 7.125 20.625 7.875 20.8125 8.4375C19.6875 8.625 19.3125 9.1875 19.875 10.125C20.0625 10.5 19.6875 10.6875 19.5 10.875C18.75 12 18 12.75 18 14.0625C18 15.375 18.9375 16.6875 20.4375 16.5C22.125 16.3125 22.125 16.3125 22.6875 17.8125C22.6875 18 22.875 18.1875 22.875 18.375C23.0625 18.75 23.25 19.125 23.0625 19.5C22.5 21 23.25 22.125 23.8125 23.25C24 23.625 24.1875 23.8125 24.375 24C21.9375 26.625 18.75 28.125 15 28.125Z" />
</svg>
