<svg width="837" height="917" viewBox="0 0 837 917" fill="none" xmlns="http://www.w3.org/2000/svg">
<path d="M505.285 621.014C504.141 621.014 503.761 621.014 502.997 621.393L505.285 621.014Z" fill="white"/>
<path d="M505.285 621.014C504.141 621.014 503.761 621.014 502.997 621.393L505.285 621.014Z" fill="white"/>
<path d="M94.1591 349.024C92.2519 338.358 88.8198 330.358 79.6667 333.025C67.4622 336.453 72.039 349.405 73.1832 355.119" stroke="var(--main)" stroke-width="2" stroke-miterlimit="10"/>
<path d="M445.41 95.7015C474.776 174.174 570.885 162.365 636.099 145.604C651.738 141.414 667.757 136.842 681.867 128.843C695.978 120.843 707.799 107.891 712.376 92.2729C717.333 74.7496 711.612 55.3218 701.699 40.0846C692.545 25.9899 679.194 11.1334 665.084 1.99094C658.983 17.6093 637.244 18.7521 622.369 18.7521C601.394 18.7521 582.327 10.7525 562.875 5.03844C543.044 -0.675618 521.684 -1.81842 501.853 3.51468C461.81 13.0381 429.774 53.7983 445.41 95.7015Z" fill="var(--main)"/>
<path d="M420.621 238.933V165.413C420.621 102.939 478.974 51.8937 550.289 51.8937C585.759 51.8937 618.177 64.4645 641.82 85.0348C665.469 105.606 679.959 133.795 679.959 165.032V238.552" stroke="var(--main)" stroke-width="2" stroke-miterlimit="10"/>
<path d="M679.959 318.549V403.498C679.959 465.972 621.609 517.018 550.289 517.018C478.974 517.018 420.621 465.972 420.621 403.498V318.549" stroke="var(--main)" stroke-width="2" stroke-miterlimit="10"/>
<path d="M473.251 344.834C509.689 344.834 539.232 315.329 539.232 278.931C539.232 242.535 509.689 213.03 473.251 213.03C436.812 213.03 407.272 242.535 407.272 278.931C407.272 315.329 436.812 344.834 473.251 344.834Z" stroke="var(--main)" stroke-width="2" stroke-miterlimit="10"/>
<path d="M626.946 344.834C663.387 344.834 692.925 315.329 692.925 278.931C692.925 242.535 663.387 213.03 626.946 213.03C590.509 213.03 560.966 242.535 560.966 278.931C560.966 315.329 590.509 344.834 626.946 344.834Z" stroke="var(--main)" stroke-width="2" stroke-miterlimit="10"/>
<path d="M538.847 277.027H561.731" stroke="var(--main)" stroke-opacity="0.8" stroke-width="4" stroke-miterlimit="10"/>
<path d="M603.302 506.732H603.682V625.962" stroke="var(--main)" stroke-width="2" stroke-miterlimit="10"/>
<path d="M508.338 624.439V509.778" stroke="var(--main)" stroke-width="2" stroke-miterlimit="10"/>
<path d="M473.251 294.169C481.675 294.169 488.507 287.347 488.507 278.932C488.507 270.516 481.675 263.694 473.251 263.694C464.826 263.694 457.996 270.516 457.996 278.932C457.996 287.347 464.826 294.169 473.251 294.169Z" fill="var(--main)"/>
<path d="M626.946 294.169C635.373 294.169 642.2 287.347 642.2 278.932C642.2 270.516 635.373 263.694 626.946 263.694C618.523 263.694 611.691 270.516 611.691 278.932C611.691 287.347 618.523 294.169 626.946 294.169Z" fill="var(--main)"/>
<path d="M411.849 303.692H404.221C395.831 303.692 388.203 307.121 382.483 312.454C377.143 318.168 373.711 325.787 373.711 334.167C373.711 350.929 387.44 364.642 404.221 364.642H419.476" stroke="var(--main)" stroke-width="2" stroke-miterlimit="10"/>
<path d="M688.348 303.692H695.978C712.756 303.692 726.486 317.406 726.486 334.167C726.486 342.548 723.054 350.167 717.333 355.881C711.996 361.214 704.367 364.642 695.978 364.642H680.723" stroke="var(--main)" stroke-width="2" stroke-miterlimit="10"/>
<path d="M419.858 325.025V343.31H407.654C402.696 343.31 398.501 339.12 398.501 334.167C398.501 331.501 399.645 329.215 401.17 327.692C402.696 326.168 404.984 325.025 407.654 325.025H419.858Z" fill="var(--main)"/>
<path d="M680.723 343.31V325.025H692.925C697.886 325.025 702.078 329.215 702.078 334.167C702.078 336.834 700.934 339.12 699.41 340.644C697.886 342.167 695.598 343.31 692.925 343.31H680.723Z" fill="var(--main)"/>
<path d="M550.289 341.786C550.289 341.786 531.222 372.261 561.731 364.642" stroke="var(--main)" stroke-width="2" stroke-miterlimit="10" stroke-linecap="round"/>
<path d="M515.968 429.783C515.968 429.783 546.477 467.495 588.427 429.783" stroke="var(--main)" stroke-width="2" stroke-miterlimit="10" stroke-linecap="round"/>
<path d="M443.503 200.84C443.503 200.84 464.479 179.888 500.708 197.031" stroke="var(--main)" stroke-width="3" stroke-miterlimit="10" stroke-linecap="round"/>
<path d="M657.075 200.84C657.075 200.84 636.099 179.888 599.869 197.031" stroke="var(--main)" stroke-width="3" stroke-miterlimit="10" stroke-linecap="round"/>
<path d="M419.858 157.413C419.858 157.413 367.227 116.653 390.11 67.131C412.993 17.6093 485.454 44.2749 485.454 44.2749C485.454 44.2749 514.439 167.698 419.858 157.413Z" fill="var(--main)"/>
<path d="M160.231 465.784C155.654 450.928 149.171 443.69 145.738 421.977C138.492 378.55 141.162 337.028 123.237 338.551C115.991 339.313 113.702 346.932 114.084 351.123L119.805 419.691C117.516 427.691 113.321 424.643 113.321 424.643C113.321 424.643 98.447 363.693 96.5403 352.646C94.6332 341.98 89.2939 335.885 82.0479 336.647C69.4621 337.79 74.4202 353.027 75.5644 358.741L88.9126 432.643C90.0568 439.881 82.4291 437.595 82.4291 437.595L52.6813 363.693C49.2492 355.694 42.7657 357.598 42.7657 357.598C30.9429 360.265 35.5194 370.931 35.5194 370.931L61.072 449.404C61.072 449.785 61.072 450.166 61.072 450.547C61.4532 454.737 56.1139 457.023 53.8255 453.213C45.8166 441.023 30.1801 421.596 17.2132 413.977C10.7297 410.168 6.15317 410.93 3.48347 412.834C0.813819 414.739 0.432439 418.167 2.33932 420.834L50.0117 489.784C61.072 562.924 105.693 571.683 105.693 571.683L132.39 676.062L171.672 840.624L176.63 861.577C181.207 881.766 199.513 896.242 220.107 896.242H241.083C255.957 896.242 266.254 881.766 261.678 868.054L166.714 579.303L162.519 554.16C171.672 543.879 177.774 522.162 180.825 506.542C182.732 498.163 183.495 489.404 182.732 481.022C181.207 460.07 195.318 422.358 195.318 422.358C194.173 415.12 180.444 421.215 180.444 421.215C165.189 426.548 161.375 450.928 160.231 464.26C159.849 469.974 157.18 474.927 153.366 478.736C130.483 501.209 128.576 526.351 128.576 526.351" stroke="var(--main)" stroke-width="2" stroke-miterlimit="10"/>
<path d="M836.325 913.19V917H753.183L735.64 819.861V917H375.617V861.766C375.617 848.434 375.617 835.101 375.999 821.768C367.99 828.24 359.218 833.573 348.921 839.291L269.212 892.621C268.831 893.001 268.45 893.001 268.068 893.381C264.636 895.288 260.822 896.432 256.627 896.432L240.051 897.056C240.051 897.056 257.771 890.335 261.966 873.571L233.363 778.34C274.17 744.434 340.149 646.536 466.767 626.347C472.107 625.203 477.829 624.06 483.93 623.296C489.651 622.537 495.372 621.773 501.853 621.393L506.05 621.014V621.773L503.761 622.157C504.526 622.157 504.905 622.157 505.67 621.773H506.05C506.814 621.773 507.574 621.773 508.338 621.393H508.718L512.535 621.014V635.49C512.535 637.392 513.295 639.679 515.203 641.582C520.924 648.059 533.89 653.012 549.529 654.156C552.198 654.535 554.866 654.535 557.534 654.535C557.919 654.535 558.298 654.535 558.298 654.535H558.678C573.937 654.156 588.048 649.966 595.293 643.869C597.581 641.966 599.869 639.3 599.869 635.49V622.157L603.682 622.916H604.446C605.59 622.916 606.355 623.296 607.499 623.296V622.157L612.456 622.916C752.423 640.059 836.325 748.628 836.325 913.19Z" fill="var(--main)"/>
<path d="M268.831 892.237L267.687 893.001C268.068 893.001 268.45 892.622 268.831 892.237Z" fill="white"/>
</svg>
