<svg width="40" height="40" viewBox="0 0 40 40" fill="var(--main)" xmlns="http://www.w3.org/2000/svg">
<path d="M11.4757 10.8242C11.7113 11.0516 12.0854 11.0483 12.3169 10.8169C12.5483 10.5854 12.5515 10.2113 12.3242 9.97577L8.72418 6.37577C8.48863 6.14843 8.11451 6.15165 7.88307 6.3831C7.65162 6.61454 7.6484 6.98866 7.87574 7.22421L11.4757 10.8242Z" />
<path d="M8.30002 20.6C8.63137 20.6 8.90002 20.3313 8.90002 20C8.90002 19.6686 8.63137 19.4 8.30002 19.4H3.50002C3.16868 19.4 2.90002 19.6686 2.90002 20C2.90002 20.3313 3.16868 20.6 3.50002 20.6H8.30002Z" />
<path d="M11.4757 29.1758L7.87575 32.7758C7.71989 32.9264 7.65719 33.1496 7.71227 33.3594C7.76706 33.5692 7.93083 33.7329 8.14059 33.7877C8.35036 33.8428 8.5736 33.7801 8.72419 33.6242L12.3242 30.0242C12.5515 29.7887 12.5483 29.4146 12.3169 29.1831C12.0854 28.9517 11.7113 28.9484 11.4757 29.1758Z" />
<path d="M20.3 30.1233V9.87677C15.1678 10.4823 11.3009 14.8323 11.3009 20C11.3009 25.1677 15.1678 29.5177 20.3 30.1233Z" />
<path d="M35.3 24.9945C34.3979 25.3051 33.4484 25.4562 32.4945 25.4413C27.8932 25.3886 24.2026 21.6216 24.2445 17.0205C24.2753 14.1391 25.7211 11.4573 28.1114 9.84803C27.6207 9.80907 27.1268 9.79999 26.6642 9.79999C24.8378 9.80057 23.0483 10.3147 21.5 11.2833V28.7167C23.7989 30.1549 26.5927 30.5712 29.2109 29.8654C31.8292 29.1594 34.0353 27.3954 35.3 24.9969V24.9945Z" />
<path d="M37.0549 15.3667L35.7218 15.1628C35.5241 15.1326 35.3545 15.0061 35.2695 14.825L34.7 13.6124L34.1304 14.825C34.0455 15.0061 33.8759 15.1326 33.6781 15.1628L32.3451 15.3667L33.3295 16.376C33.4625 16.5122 33.5228 16.7035 33.4921 16.8913L33.2659 18.2774L34.4102 17.6451C34.5907 17.5455 34.8093 17.5455 34.9897 17.6451L36.1341 18.2774L35.9079 16.8913C35.8771 16.7035 35.9375 16.5122 36.0705 16.376L37.0549 15.3667Z" />
<path d="M20.9 38C21.2313 38 21.5 37.7314 21.5 37.4V31.4C21.0992 31.3994 20.6987 31.378 20.3 31.3358V37.4C20.3 37.7314 20.5686 38 20.9 38Z" />
<path d="M21.5 2.6C21.5 2.26865 21.2313 2 20.9 2C20.5686 2 20.3 2.26865 20.3 2.6V8.66416C20.6987 8.62197 21.0992 8.60059 21.5 8.6V2.6Z" />
</svg>
