<svg width="40" height="40" viewBox="0 0 40 40" fill="var(--main)" xmlns="http://www.w3.org/2000/svg">
<path d="M25.3175 14.6825C23.9683 13.3333 22.0635 12.4603 20 12.4603C17.9365 12.4603 16.0318 13.2937 14.6825 14.6825C13.3333 16.0318 12.4603 17.9365 12.4603 20C12.4603 22.0635 13.3333 23.9683 14.6825 25.3175C16.0318 26.6667 17.9365 27.5397 20 27.5397C22.0635 27.5397 23.9683 26.7064 25.3175 25.3175C26.6667 23.9683 27.5397 22.0635 27.5397 20C27.5397 17.9365 26.7064 16.0318 25.3175 14.6825Z" />
<path d="M20.0001 10.119C20.5556 10.119 21.0318 9.64286 21.0318 9.0873V6.03175C21.0318 5.47619 20.5556 5 20.0001 5C19.4445 5 18.9683 5.47619 18.9683 6.03175V9.0873C18.9683 9.64286 19.4445 10.119 20.0001 10.119Z" />
<path d="M28.4524 13.0158L30.6349 10.8332C31.0317 10.4364 31.0317 9.8015 30.6349 9.40467C30.2381 9.00785 29.6032 9.00785 29.2064 9.40467L27.0238 11.5872C26.627 11.984 26.627 12.619 27.0238 13.0158C27.381 13.4126 28.0159 13.4126 28.4524 13.0158Z" />
<path d="M33.9683 18.9684H30.9127C30.3572 18.9684 29.881 19.4445 29.881 20.0001C29.881 20.5557 30.3572 21.0318 30.9127 21.0318H33.9683C34.5238 21.0318 35 20.5557 35 20.0001C35 19.4445 34.5238 18.9684 33.9683 18.9684Z" />
<path d="M28.4127 26.9842C28.0159 26.5873 27.381 26.5873 26.9841 26.9842C26.5873 27.381 26.5873 28.0159 26.9841 28.4127L29.1667 30.5953C29.5635 30.9921 30.1984 30.9921 30.5953 30.5953C30.9921 30.1985 30.9921 29.5635 30.5953 29.1667L28.4127 26.9842Z" />
<path d="M20.0001 29.881C19.4445 29.881 18.9683 30.3572 18.9683 30.9127V33.9683C18.9683 34.5238 19.4445 35 20.0001 35C20.5556 35 21.0318 34.5238 21.0318 33.9683V30.9127C21.0318 30.3572 20.5556 29.881 20.0001 29.881Z" />
<path d="M11.5476 26.9842L9.36506 29.1667C8.96824 29.5635 8.96824 30.1985 9.36506 30.5953C9.76189 30.9921 10.3968 30.9921 10.7936 30.5953L12.9762 28.4127C13.373 28.0159 13.373 27.381 12.9762 26.9842C12.619 26.5873 11.9841 26.5873 11.5476 26.9842Z" />
<path d="M10.119 20.0001C10.119 19.4445 9.64286 18.9684 9.0873 18.9684H6.03175C5.47619 18.9684 5 19.4445 5 20.0001C5 20.5557 5.47619 21.0318 6.03175 21.0318H9.0873C9.64286 21.0318 10.119 20.5557 10.119 20.0001Z" />
<path d="M11.5476 13.0158C11.9444 13.4126 12.5793 13.4126 12.9762 13.0158C13.373 12.619 13.373 11.984 12.9762 11.5872L10.7936 9.40467C10.3968 9.00785 9.76189 9.00785 9.36506 9.40467C8.96824 9.8015 8.96824 10.4364 9.36506 10.8332L11.5476 13.0158Z" />
</svg>
